<?xml version="1.0" encoding="UTF-8" standalone="no"?>
<svg width="100%" height="100%" viewBox="0 0 1099 515" version="1.1" xmlns="http://www.w3.org/2000/svg"
     xml:space="preserve"
     style="fill-rule:evenodd;clip-rule:evenodd;stroke-linejoin:round;stroke-miterlimit:2;">
    <g><path d="M151.5,514.2l-80.2,0c-2.1,-57.8 -52.3,-129.6 3.1,-176.2c-41.2,18.8 -23.4,69.3 -26.3,91.7c-45.9,-56.2 -73.1,-134.8 -0.9,-182.3c36.1,-35.2 -29.7,-78.5 -6.5,-119.9c3.8,-4.2 11.7,-7.3 8.4,-14.6c4.2,-2.4 10.1,-6.1 6.3,-12.2c7.4,-5.4 28,-29.8 15.5,-41.9c-6.2,-15.4 -21.5,-26.1 -21.4,-43.8c-1.2,-31.7 8.7,2.7 15.9,3.3c-3.2,-36 6,-1.4 14,12.2c51.6,56.6 -77.3,130.7 27,179c6.9,2.4 -2.3,-4.3 -4.9,-4c-12.8,-2.9 -9.6,-17.8 -19.9,-21.6c-2.7,-1.6 1.3,-3.4 1.2,-5.4c-4.8,-16.3 8.7,-31 11,-45.2c-13.4,5.1 -11,24.3 -17.9,34.6c-1,-16.6 8.6,-34 18.2,-47.2c-23.5,-6.8 -12.5,43 -23.9,49.8c2,-13.5 0.8,-28 6.2,-41c6.4,-22.4 26.1,-20.5 43.3,-22.4c21.2,-12.9 48.3,-4.6 66.1,10.6c53.1,44.1 33.6,205.7 22.6,270.9c-1.3,3.9 4.9,2.2 5.7,5.2c-10.3,23.7 31.4,33.1 41.1,48.3c-5.4,1.1 -34.2,-13.9 -35.1,-15c29.5,4.9 -3.2,-5.3 -8.8,-19.1c-1.4,-2.1 -3.4,-7.2 -5.5,-2.6c-8.9,13.6 13.3,24.2 16.8,37.1c1.7,-7.5 5.5,5.5 0.6,2.9c-2.1,-0.6 2.4,6.5 2.5,7.7c8.8,19.2 -20.8,-28.7 -31.9,-33.4c-1.4,-6.4 0.2,-11.3 -7,-14.2c-1.1,-4.8 6.7,-10.5 2.8,-1.4c11.6,4.8 2.6,-34.3 3.6,-42.3c-2.6,-40.3 -0.6,3.7 -5.3,20.7c0.8,47.4 -33.7,85 -36.4,131.7Zm63.8,-78.2c-4.5,-9.9 -19.4,-16.4 -14.8,-28.8c-13.8,4.6 6.3,20 14.8,28.8Zm-156.7,-174.2c-20.1,19.9 -41.1,44.3 -35.8,74.6c4.8,-27.5 20.4,-52.2 35.8,-74.6Zm-3.4,-125.3c-0.3,-0.2 -0.3,0 0,0c0.2,0.3 0.3,0 0,0Zm44.8,228.8c2.8,4.5 4.8,9.8 6.2,14.9c0,-4.6 -4.5,-14.1 -6.2,-14.9Zm-36.2,4.6c-1.3,5 -2,10.5 -1.9,15.7c0.6,-4.1 1.8,-14.7 1.9,-15.7Zm43.1,-58.3c16.2,-20.7 12.4,-28.6 3.7,-37.7c1.2,6.6 6.5,27.2 -3.7,37.7Zm14.7,-24.2c6,13.4 20.9,7.1 4.8,21.9c14.4,-10.4 14.3,2.2 0.9,6.6c-10.4,3.1 3,1.3 5.8,-0.1c20.6,-8 -1.4,-22.3 -11.5,-28.4Zm34.8,103.5c-37.4,21.5 -53.6,75.6 -58.2,116c10.4,-41.7 24.3,-87.6 58.2,-116Zm56,-134c7.2,-8.8 5.3,-61.2 -17.7,-50.7c-6.2,1.9 -19.4,-0.5 -9.3,8c16.3,10.1 36.9,19.7 27,42.7Zm-17.3,61.8c21.1,-26 -20.5,33.1 17.8,21.5c5.3,-8.9 6.2,-32.2 -0.6,-34.5c4,-38.8 -14.7,0.6 -17.2,13Zm-126.4,-300.3c9.7,35.2 -11.1,-4.8 -16.9,-13.9c-0.2,15.7 11.7,27.8 24.8,34.3c0.2,2.9 -12,-5.3 -13.7,-6c-7.4,-4 15.2,20.2 15.7,26.1c6.7,5.9 -12.5,30.2 -15,41.4c-2.8,2.2 -2.6,4.6 1.1,5.3c18.2,9 19.5,-25.9 25.8,-37.5c4.4,-20.2 -14.9,-32.6 -21.8,-49.7Zm112.4,225c-2.2,-5.5 -7.1,-10.9 -10.8,-15.8c9.8,7.9 23,26.3 17.8,1.1c-3.6,-9.4 -21.3,-34.9 -22,-10.7c-11.9,-19 -17.4,-48.8 -43.8,-54.1c-1.8,2.6 -17.7,10.3 -14.5,4.1c2,-3.8 12.1,-3.9 10.2,-8.7c-1.3,-2.9 -5.1,-3.3 -6.8,-0.6c-9.8,8.8 -4.5,-1.5 1.3,-4.8c-9.9,-43.1 -31.5,7.4 -19.3,14.6c-4.1,4 -2.3,7.6 4.1,5.3c5,1.9 -7.4,4.3 1,11.1c31.4,39.4 33.6,-33.8 45.5,3.3c4.4,14.8 24.5,44.9 -5.7,32.5c-14.2,1.6 2,15.7 8.5,16.9c11.4,3.2 24.2,-1.6 34.5,5.8Zm-56.1,79.7c-98.2,8.4 86.7,107 62.1,16.6c3.5,-33.6 51.3,-110.1 -22.3,-62.5c-29.6,16 -7.6,48.1 -39.8,45.9Zm11.8,-57.4c0.5,-19.7 -14.4,-58.6 -38.6,-50c6,13.5 19.7,26.8 21,41.6c-5.7,-6.2 -9.1,-15.5 -13.7,-22.8c-11.1,-33 -27.9,-0.6 -21.5,1c16.4,9.5 45.1,79.7 52.8,30.2Zm-99.5,-113.7c5.5,15.6 10.5,32.6 17.9,47.6c3.2,5.6 8.6,2.2 11.3,-1.9c12.1,-10.9 -2.8,-21.8 -5,-33.9c-1,-12.9 -7,-2.7 -14.7,-3.9c-3.5,-0.9 29.9,-17.6 9,-19.9c-11.7,-7.8 -16.7,0.7 -18.5,12Zm159.9,247.4c8.6,14.4 12.6,-43.4 16.3,-52.5c1.8,-6.2 -4.2,-2 -7.3,-2.5c-22.7,-7.8 -3.1,40.9 -9,55Zm-118.9,-134c1.8,38.7 -34.7,51.5 -31.9,83.1c2.8,-28.6 24.9,-37.7 32.9,-61.9c4.1,-17.7 3.5,-42.8 -3.4,-54.9c-9.3,-9.3 5.6,27 2.4,33.7Zm27.7,2.4c-37.5,-60.8 16.7,24.8 -25.2,47.8c-1.9,1.6 -7.4,5.2 -1.1,3.3c20.2,-7.8 23.8,-32.5 26.3,-51.1Zm-75.8,89.9c-2.4,-1.2 27.5,-62.1 26.3,-70.6c-13.3,21.4 -26.2,44.8 -26.3,70.6Zm139,-166.9c-10.4,-16.1 -15.8,-37.9 -27.5,-51.8c0.6,18.2 15.3,42.4 27.5,51.8Zm-114.8,-71.8c-14.1,8.3 -0.7,17.7 10.7,15.5c8.7,-12.4 -1,-12.2 -10.7,-15.5Zm59.1,12.4c-9.9,1.9 20.7,21.6 20.6,28.3c0.3,-11.9 -5.4,-30.1 -20.6,-28.3Zm-58.6,-15.8c4.1,4.9 19.4,6.9 18.4,-4.2c-7.5,-3.5 -16.2,-7.2 -18.4,4.2Zm33.5,391.1c-2.6,-29.6 -12.7,-58.1 -21.3,-86.4c4.9,28.4 15.8,60 21.3,86.4Zm-31.2,-476.6c0,-3 -2.4,-9.1 -4.6,-10.4c0.9,2.2 1.6,14.6 4.6,10.4Zm134.8,298.3c0,3 1.5,-5.3 1.6,-6c-1.3,-0.2 -1.4,4.8 -1.6,6Zm16.9,68.4c1,0 2.6,-2.7 0.6,-1.9c-0.4,0.4 -1.5,1.5 -0.6,1.9Zm-2.7,2.3c-0.4,-2.3 -1.9,1.4 -0.5,0.8c0.3,-0.2 0.5,-0.5 0.5,-0.8Zm-83.8,-87.1c0.7,-0.2 1.7,-0.4 2.1,-1.1c-0.1,-0.3 -2.8,1.1 -2.1,1.1Zm69.4,18.8c0.1,-0.1 0.1,-0.2 0,-0.3l0,0.3Zm-86.6,-9.3c0,-0.1 -0.1,-0.1 -0.2,-0.1c-0.1,0.1 0.1,0.1 0.2,0.1Z" style="fill:#ffffff;fill-rule:nonzero;"/>
        <path d="M189.4,285.7c1.7,15.8 -12.7,42.9 -22.3,45.1c18.7,-6.6 23,-70.1 22.3,-45.1Z"
              style="fill:#ffffff;fill-rule:nonzero;"/>
        <path d="M153.4,347.7c1.4,-0.3 8,1.9 4.3,3.2c-2.2,0.9 -10.1,-2.6 -4.3,-3.2Z"
              style="fill:#ffffff;fill-rule:nonzero;"/>
        <path d="M117.6,184.5c5.6,-2.4 -5,6 -6.3,4.2c0.2,-2.5 4.3,-3.1 6.3,-4.2Z"
              style="fill:#ffffff;fill-rule:nonzero;"/>
        <path d="M118.4,189.4c-0.4,0.9 -3,2.7 -3.8,1.5c-0.3,-0.7 4.1,-3.6 3.8,-1.5Z"
              style="fill:#ffffff;fill-rule:nonzero;"/>
        <path d="M112.2,182.9c-0.3,0.6 -0.8,1.4 -1.4,1.7c-1.9,-0.1 0.6,-4.2 1.4,-1.7Z"
              style="fill:#ffffff;fill-rule:nonzero;"/></g>
    <g><path d="M427.1,320.6c0,-0.6 -2.2,-0.9 -6.5,-0.9l-17.5,0.4c3.1,-5.6 6.9,-13 11.3,-22c4.4,-9.1 7.9,-15.2 10.3,-18.5c2.4,-3.3 5,-5.9 7.7,-7.8c1.3,-1 2.5,-3.6 3.6,-7.9c1.1,-4.3 1.6,-7.5 1.6,-9.5c0,-2 -0.7,-3.1 -2,-3.1c-3,0 -11.4,7.3 -25.2,21.8c-20.5,21.6 -35.9,37.1 -46.3,46.6c-5.4,0 -12.1,-0.5 -20,-1.4c-4.1,0 -6.4,2.2 -6.8,6.7c-0.5,1.9 3.1,2.2 10.8,0.7c3.6,-0.6 7.5,-1 11.7,-1.3c-21.4,19.7 -36.8,33.1 -46.3,40.1c-21.4,16.1 -38.3,24.1 -50.8,24.1c-13.1,0 -19.6,-6.4 -19.6,-19.3c0,-8.5 3.4,-20.4 10.2,-35.6c6.8,-15.2 16.7,-28.1 29.7,-38.5c13,-10.4 24.2,-15.7 33.6,-15.7c4.6,0 7.9,1.5 10,4.4c2.1,2.9 3.1,6.8 3.1,11.6c0,4.8 -2,10.4 -6.1,16.7l-5.9,9.7c0,0.2 0.2,0.4 0.6,0.4c0.4,0 0.8,-0.1 1.2,-0.2c3.7,-1.9 7.4,-6.5 11,-13.7c3.6,-7.2 5.4,-13.7 5.4,-19.6c0,-8.8 -5.9,-13.1 -17.8,-13.1c-11.9,0 -25.3,5.4 -40.3,16.3c-15,10.9 -26.8,24 -35.5,39.3c-6.5,11.5 -9.7,22.4 -9.7,32.8c0,17.4 9.2,26.9 27.7,28.4c0.8,0.1 1.7,0.2 2.5,0.2c13.7,0 32.6,-8.8 56.9,-26.5c16.2,-11.9 32.3,-25.7 48.4,-41.4l21.6,-0.5c-9.2,18.7 -13.9,34.1 -13.9,46.3c0,5.9 1.4,9.4 4.3,10.4c1.2,0.2 2.8,0.4 5,0.4c2.1,0 4.7,-0.7 7.7,-2.2c3,-1.5 4.9,-3.2 5.5,-5.4c0,-0.6 -0.2,-0.9 -0.6,-0.9c-0.4,0 -1.6,0.8 -3.6,2.4c-2,1.6 -3.6,2.4 -5,2.4c-3.5,0 -5.2,-2.8 -5.2,-8.3c0,-7.9 5.6,-22.8 16.7,-44.6c17.7,-1.3 26.5,-2.7 26.5,-4.2Zm-45,-1.3l-10.6,0l46.1,-43.2c-13.9,22.1 -22.6,36.5 -26.1,43.4c-3.8,0 -6.9,-0.1 -9.4,-0.2Z" style="fill:#ffffff;fill-rule:nonzero;"/>
        <path d="M659.8,336.5c0,-0.9 -0.2,-1.4 -0.7,-1.4c-0.5,0 -0.9,0.2 -1.3,0.7c-16.6,20.6 -28,31 -34.2,31c-2,0 -3.4,-1.4 -4,-4.1c-0.1,-0.4 -0.2,-0.7 -0.2,-1.1c0,-4.3 3.7,-12 11.2,-23c7.4,-11 11.2,-16.8 11.2,-17.4c0,-0.6 -0.6,-1.4 -1.8,-2.5c-1.2,-1.1 -2.5,-1.6 -3.8,-1.6l-2.5,0.5c-0.1,0 -0.3,-0.3 -0.5,-1c-0.2,-0.7 -0.5,-1.5 -0.9,-2.4c-1.3,-2.8 -4,-4.1 -7.9,-4.1c-10.2,0 -21.4,6.1 -33.7,18.3c-4.5,4.5 -8.1,8.7 -11,12.7c-0.7,0.6 -1.5,1.4 -2.5,2.5c-5.6,6.6 -11.2,11.9 -16.6,15.8c-5.5,3.9 -9.6,5.8 -12.4,5.8c-2.8,0 -4.8,-0.5 -5.9,-1.6c-1.1,-1.1 -1.5,-2.7 -1.3,-4.9c1,-6.4 5.3,-14.5 13.1,-24.4c7.8,-9.9 11.7,-15 11.7,-15.2c0,-1.2 -0.6,-2.2 -1.9,-3.1c-1.3,-0.9 -2.6,-1.4 -4,-1.4c-4.9,0 -13,4.4 -24.3,13.1c0,0.1 -6.7,5.8 -20,16.9c0.5,-1.6 3,-6.5 7.6,-14.8c4.7,-8 7,-12.6 7,-13.6c0,-1 -0.6,-1.9 -1.8,-2.8c-1.2,-0.8 -2.5,-1.3 -4,-1.3c-4.7,0 -14.4,6.8 -29.2,20.5c-9.8,9.1 -17.2,16.4 -22.1,21.8c0.7,-2.8 4.3,-9.6 10.6,-20.4c6.4,-10.9 9.5,-16.7 9.5,-17.5c0,-2.3 -1.2,-3.4 -3.6,-3.4c-2.4,0 -4.3,0.9 -5.6,2.7c-8,11.4 -13.8,19.3 -17.3,23.8c-0.9,1.2 -1.9,2.4 -2.9,3.6l-0.1,0.1c-2.7,3.2 -5.7,6.4 -8.9,9.6c-0.4,0.4 -0.6,0.7 -0.9,1c-3.1,2.9 -6.2,5.5 -9.4,7.6c-6.2,4.2 -11.3,6.3 -15.3,6.3c-4,0 -5.9,-1.8 -5.9,-5.4c0,-3.6 1,-7.4 3.1,-11.5c1,-2 1.8,-3.7 2.5,-5c0.7,-1.3 1.8,-3 3.3,-5.3c1.5,-2.3 3.7,-5.7 6.8,-10.4c3,-4.6 8.4,-12.2 16.3,-22.8c7.9,-10.6 13.2,-17.7 15.9,-21.4c-0.1,-1.1 -0.8,-2.1 -2.1,-3c-1.3,-0.9 -2.5,-1.3 -3.7,-1.3c-5.9,0 -15.8,11.4 -29.9,34.2c-7.7,12.4 -13.3,22.6 -16.7,30.8c-2,5.2 -3.1,9.7 -3.1,13.6c0,3.9 1.4,6.8 4.1,8.6c2.8,1.9 6.1,2.8 10.1,2.8c8,0 18.1,-6.6 30.1,-19.8c0.2,-0.2 0.3,-0.4 0.5,-0.6l9.6,-10.1c-6.2,13.7 -9.4,21.6 -9.4,23.8c0,1.4 0.6,2.9 1.7,4.3c1.1,1.4 2.5,2.2 4,2.2c0.7,0 3.9,-3.5 9.5,-10.6c5.6,-7.1 11.6,-14.1 18.2,-21.1c6.5,-7 14.5,-13.6 23.9,-19.7c-6.5,13.3 -10.4,21.4 -11.7,24.1c-4.2,8.5 -6.9,16.1 -8.1,22.7c0,3.2 1.4,4.9 4.3,4.9c1.4,0 2.5,-0.5 3.1,-1.4c3.8,-10.3 10.6,-20.2 20.3,-29.6c9.7,-9.4 18.3,-15.9 25.7,-19.5c-4.2,5.2 -8.2,11.5 -12.1,19c-3.8,7.5 -5.8,13.4 -5.8,17.7c0,7.6 4.1,11.3 12.2,11.3c3.8,0 9.1,-2.5 15.9,-7.5c4.1,-3 8,-6.4 11.7,-10.1c-1,2.8 -1.6,5.5 -1.6,8c0,4 1.6,7.1 4.9,9.5c2.9,2 5.9,3.1 9.1,3.1c3.2,0 8.3,-3.1 15.4,-9.4l11.2,-10.8c-0.5,2 -0.7,4.1 -0.7,6.1c0,5.9 2.6,9.8 7.9,11.9c1,0.4 2,0.5 3.1,0.5c8,0 19.7,-10.3 35.1,-30.8c1.4,-1.2 1.9,-2.4 1.9,-3.3Zm-47,9.1c-12,15.2 -21.5,22.9 -28.4,22.9c-3,0 -4.5,-2.2 -4.5,-6.5c0,-7.4 6.1,-16.8 18.2,-28.2c12.1,-11.3 21.8,-17 29.2,-17c2.2,0 3.7,0.8 4.7,2.5l-19.2,26.3Z"
              style="fill:#ffffff;fill-rule:nonzero;"/>
        <path d="M709.1,318.2c-1.9,0 -3.7,0.5 -5.4,1.4c-13.2,-4.3 -21.5,-6.5 -24.8,-6.5c-3.4,0 -6.7,0.3 -9.9,0.9c-6.1,1.3 -9.2,4.1 -9.2,8.3c0,2.5 1,5 2.9,7.4c2,2.4 3.5,3.6 4.4,3.6c0.9,0 1.3,-0.3 1.3,-0.9c0,-0.6 -0.7,-1.4 -2,-2.4c-1.3,-1 -2,-2.3 -2,-3.9c0,-1.6 0.7,-3 2.1,-4.2c1.4,-1.3 2.7,-2 3.9,-2.2c1.2,-0.2 2.5,-0.3 3.8,-0.3c4.6,0 11.6,1.4 21.1,4.3c-7,5.3 -17.9,16.3 -32.8,33.1c-5.2,-4.1 -8.1,-6.1 -8.7,-6.1c-0.7,0 -1.6,0.6 -2.8,1.7c-0.2,0.2 -0.4,0.4 -0.6,0.7c-0.1,0.1 -0.2,0.2 -0.3,0.3c-0.2,0.2 -0.4,0.4 -0.5,0.7c-3.7,5.2 -4,10.3 -4,10.5l0.1,0c0,3 1.4,4.5 4.1,4.5c2,0 5.5,-1.7 10.3,-5c4.6,3.5 7.9,5.8 9.9,6.8c5.2,3 11.7,4.5 19.6,4.5c7.2,0 13.1,-1.6 17.6,-4.7c4.6,-3.1 6.8,-7.1 6.8,-11.9c0,-1.9 -0.3,-3.6 -0.9,-5c-0.6,-1.4 -1.2,-2.1 -1.8,-2.1c-1.7,0 -2.2,0.7 -1.6,2.1c0.6,1.4 0.9,2.9 0.9,4.4c0,3.4 -1.6,6.1 -4.9,8.3c-3.2,2.2 -8.3,3.2 -15.1,3.2c-6.8,0 -12.8,-1.7 -18,-5l-6.5,-5c13.1,-15.2 25.3,-26.4 36.7,-33.5c1.8,0.8 3.8,1.3 5.9,1.3c2.1,0 4,-0.5 5.6,-1.5c1.6,-1 2.3,-2.1 2.3,-3.3c0.1,-3 -2.4,-4.5 -7.5,-4.5Zm-57.9,45.6l-0.5,0c0.2,-1.1 0.8,-3 1.9,-5l3.8,2.9c-2.1,1.4 -3.8,2.1 -5.2,2.1Z"
              style="fill:#ffffff;fill-rule:nonzero;"/>
        <path d="M1097.4,340.9c-0.4,0 -2.4,2.2 -6.1,6.5c-3.9,4.3 -8.3,8.2 -13.1,11.7c-8,5.9 -14.8,8.9 -20.3,8.9c-5.3,0 -7.9,-2.8 -7.9,-8.5c0,-5.7 3.8,-13.5 11.5,-23.3l12.4,-15.7c0.4,-1 0,-2 -1.1,-3.2c-1.1,-1.2 -2.1,-1.8 -3.1,-1.8c-1,0 -1.6,0.1 -1.8,0.2l-4.7,2.9c-2.6,1.6 -5,2.4 -7.2,2.4c-3.7,0 -5.6,-1.2 -5.6,-3.8l4.3,-5.8c3,-3.7 4.5,-6.8 4.5,-9.2c0,-2.4 -1.4,-3.6 -4.1,-3.6c-4.2,0 -7.7,5.2 -10.4,15.7c-4.3,8.3 -11.5,18.5 -21.7,30.4c-10.5,11.7 -19.6,19.2 -27.3,22.6c-1.1,0.5 -2,0.7 -2.9,0.7c-1.8,0 -2.7,-1.6 -2.7,-4.9c0,-3.3 1.8,-7.5 5.4,-12.7c3.6,-5.2 8.8,-12 15.6,-20.3c5,-5.8 7.5,-9.3 7.5,-10.5c0,-3.4 -2.2,-5 -6.5,-5c-2.9,0 -8.9,5.8 -18,17.2c-9.1,11.5 -15.3,18.9 -18.7,22.3c-9.6,10 -16.9,15 -21.9,15c-1.4,0 -2.2,-1.1 -2.2,-3.2c0,-4.9 3.6,-12.5 10.8,-22.9c7.2,-10.3 13.2,-17.7 18,-22.2c0.7,-0.7 1.1,-1.5 1.1,-2.3c0,-2.2 -1.6,-3.2 -4.9,-3.2c-3.2,0 -6.4,1.8 -9.5,5.4l-24.8,29.2c-0.1,0.1 -0.2,0.2 -0.3,0.4c-20,19.5 -34.7,27.6 -44,30.9l0.1,0.2c-2.2,0.8 -3.7,1.4 -4.6,1.5c-1.6,0.3 -2.7,0.1 -3.4,-0.7c-0.7,-0.8 -1.1,-2.1 -1.1,-4c0,-7.9 5.2,-21 15.7,-39.2c10.4,-18.2 23.2,-35 38.2,-50.4c6.4,-6.5 9.2,-10.7 8.6,-12.8c-1.2,-5.2 -4.1,-7.7 -8.6,-7.7c-1.3,0 -2.5,0.2 -3.6,0.7c-21.5,7.9 -47.2,24.4 -77,49.5c-8.4,7.2 -14.5,13.1 -18.2,17.8c16.6,-25.1 24.8,-44.5 24.8,-58.1c0,-5.6 -1.7,-10 -5.2,-13.2c-3.5,-3.2 -9.5,-4.8 -17.9,-4.8c-8.4,0 -17.9,1.7 -28.3,5.2c-10.4,3.5 -18.8,7.8 -25.3,13c-25.7,20.6 -38.5,40.3 -38.5,59c0,7.9 2.3,14.2 7,18.9c4.7,4.7 11,7 19.1,7c8,0 15.2,-1.9 21.5,-5.8c6.3,-3.8 10.6,-7.9 13,-12.2c2.4,-4.3 3.6,-7.7 3.6,-10.3c0,-4.1 -1.6,-6.1 -4.7,-6.1c-0.7,0 -1.1,0.2 -1.1,0.5c0,0.4 0.1,0.6 0.2,0.7c1.3,0.7 2,2.5 2,5.2c0,2.8 -1.4,6.1 -4.3,10.1c-7.3,10 -18.1,14.9 -32.2,14.9l-1.4,0c-10.7,-0.2 -16,-6.1 -16,-17.6c0,-8 3,-17.2 9,-27.4c6.6,-10.8 16,-21.2 28.3,-31.3c16.1,-13.1 31.3,-19.6 45.5,-19.6c7.8,0 12.7,2.2 14.8,6.5c1.3,2.9 2,6 2,9.4c0,8.5 -4.1,20.1 -12.2,34.7c-3.7,6.7 -11.5,18.9 -23.3,36.5c-11.8,17.6 -17.7,27.9 -17.7,31c0,1.8 1.7,2.7 5.2,2.7c3.5,0 6.2,-0.6 8.2,-1.9c2,-1.3 3,-2 3,-2.2c-1.1,-0.5 -1.6,-1.4 -1.6,-2.8c0,-1.4 1.4,-4.3 4.3,-8.7c8.5,-13.7 22.9,-30.1 43,-49.1c25.3,-23.8 46,-36.4 61.9,-37.8c-14.8,20.5 -25.7,36.8 -32.8,49c-11,19.3 -16.6,34.1 -16.6,44.5c0,4.6 1.1,8.3 3.2,11.3c0.8,1.1 2.8,1.6 5.9,1.6c3,0 7.4,-1.5 13.3,-4.4c10.2,-4.4 25.2,-13.8 44.6,-33.2c-2.5,4.8 -3.8,8.8 -3.8,12.1l0,1.3c0.5,6.1 3.2,9.2 8.1,9.2c7.8,0 18.6,-8.1 32.3,-24.2c-0.4,1.6 -1,3.8 -1.9,6.8c-0.9,3 -1.3,5.7 -1.3,8.2c0,2.5 1,4.5 3,6c2,1.6 4,2.3 5.9,2.3c2,0 3.3,-0.1 3.9,-0.2c2.9,-0.6 7.8,-3.9 14.7,-10c6.9,-6.1 13,-12.1 18.1,-18.1l0,-0.1c1.7,-2 3.7,-4.4 6.1,-7.3l13.3,-17.3c1.9,4.1 4.3,6.1 7.2,6.1c1,0 1.7,-0.1 2.3,-0.2c-3.1,4.1 -6,9.1 -8.6,15.1c-2.6,6 -3.9,11.5 -3.9,16.6c0,10 4.5,14.9 13.5,14.9c6.1,0 13.9,-3.6 23.4,-10.7c4,-3.1 7.5,-6.4 10.8,-9.7l5.7,-6.5c1.1,-1.2 1.6,-2.3 1.6,-3.2c0,-0.9 -0.3,-1.5 -1.1,-1.5Z"
              style="fill:#ffffff;fill-rule:nonzero;"/></g>
    <g><path d="M431.1,435.7l-15.6,0l-3.4,7.5l-3.1,0l12.8,-28l2.9,0l12.8,28l-3.1,0l-3.3,-7.5Zm-1.1,-2.4l-6.7,-15l-6.7,15l13.4,0Z" style="fill:#ffffff;fill-rule:nonzero;"/>
        <path d="M444.5,442.1c-1.6,-0.9 -2.9,-2.2 -3.9,-3.8c-0.9,-1.6 -1.4,-3.5 -1.4,-5.5c0,-2 0.5,-3.9 1.4,-5.5c0.9,-1.6 2.2,-2.9 3.9,-3.8c1.6,-0.9 3.5,-1.4 5.6,-1.4c1.8,0 3.4,0.4 4.9,1.1c1.4,0.7 2.6,1.7 3.4,3.1l-2.1,1.4c-0.7,-1 -1.6,-1.8 -2.6,-2.3c-1.1,-0.5 -2.2,-0.8 -3.5,-0.8c-1.5,0 -2.9,0.3 -4.1,1c-1.2,0.7 -2.2,1.6 -2.8,2.9c-0.7,1.3 -1,2.7 -1,4.3c0,1.6 0.3,3.1 1,4.3c0.7,1.2 1.6,2.2 2.8,2.9c1.2,0.7 2.6,1 4.1,1c1.3,0 2.4,-0.3 3.5,-0.8c1.1,-0.5 1.9,-1.3 2.6,-2.3l2.1,1.4c-0.8,1.4 -2,2.4 -3.4,3.1c-1.4,0.7 -3.1,1.1 -4.8,1.1c-2.2,-0.1 -4,-0.5 -5.7,-1.4Z"
              style="fill:#ffffff;fill-rule:nonzero;"/>
        <path d="M477.6,424.1c1.5,1.4 2.2,3.4 2.2,6.1l0,13l-2.7,0l0,-3.3c-0.6,1.1 -1.6,1.9 -2.8,2.6c-1.2,0.7 -2.7,0.9 -4.4,0.9c-2.3,0 -4.2,-0.6 -5.6,-1.7c-1.4,-1.1 -2.1,-2.6 -2.1,-4.4c0,-1.8 0.6,-3.2 1.9,-4.3c1.3,-1.1 3.4,-1.6 6.2,-1.6l6.7,0l0,-1.3c0,-1.8 -0.5,-3.2 -1.5,-4.1c-1,-0.9 -2.5,-1.4 -4.4,-1.4c-1.3,0 -2.6,0.2 -3.8,0.7c-1.2,0.4 -2.3,1 -3.2,1.8l-1.3,-2.1c1.1,-0.9 2.3,-1.6 3.8,-2.1c1.5,-0.5 3.1,-0.7 4.7,-0.7c2.7,-0.2 4.8,0.5 6.3,1.9Zm-3.2,16c1.1,-0.7 2,-1.8 2.6,-3.2l0,-3.4l-6.6,0c-3.6,0 -5.4,1.3 -5.4,3.8c0,1.2 0.5,2.2 1.4,2.9c0.9,0.7 2.2,1.1 3.9,1.1c1.6,-0.1 3,-0.5 4.1,-1.2Z"
              style="fill:#ffffff;fill-rule:nonzero;"/>
        <path d="M506.8,413.4l0,29.8l-2.7,0l0,-4.2c-0.9,1.4 -2,2.5 -3.4,3.2c-1.4,0.7 -3,1.1 -4.7,1.1c-2,0 -3.8,-0.5 -5.4,-1.4c-1.6,-0.9 -2.9,-2.2 -3.8,-3.8c-0.9,-1.6 -1.4,-3.5 -1.4,-5.6c0,-2.1 0.5,-3.9 1.4,-5.6c0.9,-1.6 2.2,-2.9 3.8,-3.8c1.6,-0.9 3.4,-1.3 5.4,-1.3c1.7,0 3.2,0.4 4.6,1.1c1.4,0.7 2.5,1.7 3.4,3.1l0,-12.6l2.8,0Zm-6.6,26.5c1.2,-0.7 2.1,-1.6 2.8,-2.9c0.7,-1.3 1,-2.7 1,-4.3c0,-1.6 -0.3,-3 -1,-4.3c-0.7,-1.3 -1.6,-2.2 -2.8,-2.9c-1.2,-0.7 -2.5,-1 -4,-1c-1.5,0 -2.8,0.3 -4,1c-1.2,0.7 -2.1,1.6 -2.8,2.9c-0.7,1.3 -1,2.7 -1,4.3c0,1.6 0.3,3 1,4.3c0.7,1.3 1.6,2.2 2.8,2.9c1.2,0.7 2.5,1 4,1c1.5,0 2.8,-0.3 4,-1Z"
              style="fill:#ffffff;fill-rule:nonzero;"/>
        <path d="M533,433.6l-17.6,0c0.2,2.2 1,4 2.5,5.3c1.5,1.3 3.4,2 5.8,2c1.3,0 2.5,-0.2 3.6,-0.7c1.1,-0.5 2,-1.2 2.8,-2.1l1.6,1.8c-0.9,1.1 -2.1,2 -3.5,2.6c-1.4,0.6 -2.9,0.9 -4.6,0.9c-2.2,0 -4.1,-0.5 -5.7,-1.4c-1.6,-0.9 -3,-2.2 -3.9,-3.8c-0.9,-1.6 -1.4,-3.5 -1.4,-5.5c0,-2 0.4,-3.9 1.3,-5.5c0.9,-1.6 2.1,-2.9 3.7,-3.8c1.6,-0.9 3.3,-1.4 5.3,-1.4c1.9,0 3.7,0.5 5.2,1.4c1.5,0.9 2.8,2.2 3.6,3.8c0.8,1.6 1.3,3.5 1.3,5.5l0,0.9Zm-15.2,-7.2c-1.4,1.3 -2.2,3 -2.3,5.1l14.9,0c-0.2,-2.1 -1,-3.8 -2.3,-5.1c-1.4,-1.3 -3.1,-1.9 -5.1,-1.9c-2.1,0 -3.8,0.6 -5.2,1.9Z"
              style="fill:#ffffff;fill-rule:nonzero;"/>
        <path d="M571.3,424.3c1.5,1.5 2.3,3.8 2.3,6.7l0,12.2l-2.8,0l0,-11.9c0,-2.2 -0.5,-3.9 -1.6,-5c-1.1,-1.1 -2.5,-1.7 -4.5,-1.7c-2.2,0 -3.9,0.7 -5.2,2c-1.3,1.3 -1.9,3.2 -1.9,5.6l0,11l-2.8,0l0,-11.9c0,-2.2 -0.5,-3.9 -1.6,-5c-1.1,-1.1 -2.6,-1.7 -4.5,-1.7c-2.2,0 -3.9,0.7 -5.1,2c-1.3,1.3 -1.9,3.2 -1.9,5.6l0,11l-2.8,0l0,-21l2.7,0l0,3.8c0.7,-1.3 1.8,-2.3 3.1,-3c1.3,-0.7 2.9,-1 4.6,-1c1.8,0 3.3,0.4 4.6,1.1c1.3,0.7 2.3,1.9 2.9,3.3c0.8,-1.4 1.9,-2.5 3.3,-3.3c1.5,-0.8 3.1,-1.2 5,-1.2c2.7,0.1 4.7,0.9 6.2,2.4Z"
              style="fill:#ffffff;fill-rule:nonzero;"/>
        <path d="M581.3,417c-0.4,-0.4 -0.6,-0.9 -0.6,-1.4c0,-0.5 0.2,-1 0.6,-1.4c0.4,-0.4 0.9,-0.6 1.5,-0.6c0.6,0 1.1,0.2 1.5,0.6c0.4,0.4 0.6,0.8 0.6,1.4c0,0.6 -0.2,1.1 -0.6,1.5c-0.4,0.4 -0.9,0.6 -1.5,0.6c-0.6,-0.1 -1.1,-0.3 -1.5,-0.7Zm0,5.2l2.8,0l0,21l-2.8,0l0,-21Z"
              style="fill:#ffffff;fill-rule:nonzero;"/>
        <path d="M605.8,424.1c1.5,1.4 2.2,3.4 2.2,6.1l0,13l-2.7,0l0,-3.3c-0.6,1.1 -1.6,1.9 -2.8,2.6c-1.2,0.7 -2.7,0.9 -4.4,0.9c-2.3,0 -4.2,-0.6 -5.6,-1.7c-1.4,-1.1 -2.1,-2.6 -2.1,-4.4c0,-1.8 0.6,-3.2 1.9,-4.3c1.3,-1.1 3.4,-1.6 6.2,-1.6l6.7,0l0,-1.3c0,-1.8 -0.5,-3.2 -1.5,-4.1c-1,-0.9 -2.5,-1.4 -4.4,-1.4c-1.3,0 -2.6,0.2 -3.8,0.7c-1.2,0.4 -2.3,1 -3.2,1.8l-1.3,-2.1c1.1,-0.9 2.3,-1.6 3.8,-2.1c1.5,-0.5 3.1,-0.7 4.7,-0.7c2.7,-0.2 4.8,0.5 6.3,1.9Zm-3.2,16c1.1,-0.7 2,-1.8 2.6,-3.2l0,-3.4l-6.6,0c-3.6,0 -5.4,1.3 -5.4,3.8c0,1.2 0.5,2.2 1.4,2.9c0.9,0.7 2.2,1.1 3.9,1.1c1.5,-0.1 2.9,-0.5 4.1,-1.2Z"
              style="fill:#ffffff;fill-rule:nonzero;"/>
        <path d="M626.8,415.2l11.4,0c3,0 5.6,0.6 7.8,1.8c2.2,1.2 4,2.8 5.3,5c1.3,2.1 1.9,4.5 1.9,7.3c0,2.8 -0.6,5.1 -1.9,7.3c-1.3,2.1 -3,3.8 -5.3,5c-2.3,1.2 -4.9,1.8 -7.8,1.8l-11.4,0l0,-28.2Zm11.2,25.5c2.5,0 4.6,-0.5 6.4,-1.5c1.8,-1 3.3,-2.3 4.3,-4c1,-1.7 1.5,-3.7 1.5,-5.9c0,-2.2 -0.5,-4.2 -1.5,-5.9c-1,-1.7 -2.4,-3.1 -4.3,-4c-1.8,-1 -4,-1.5 -6.4,-1.5l-8.3,0l0,22.9l8.3,0l0,-0.1Z"
              style="fill:#ffffff;fill-rule:nonzero;"/>
        <path d="M672.9,424.1c1.5,1.4 2.2,3.4 2.2,6.1l0,13l-2.7,0l0,-3.3c-0.6,1.1 -1.6,1.9 -2.8,2.6c-1.2,0.7 -2.7,0.9 -4.4,0.9c-2.3,0 -4.2,-0.6 -5.6,-1.7c-1.4,-1.1 -2.1,-2.6 -2.1,-4.4c0,-1.8 0.6,-3.2 1.9,-4.3c1.3,-1.1 3.4,-1.6 6.2,-1.6l6.7,0l0,-1.3c0,-1.8 -0.5,-3.2 -1.5,-4.1c-1,-0.9 -2.5,-1.4 -4.4,-1.4c-1.3,0 -2.6,0.2 -3.8,0.7c-1.2,0.4 -2.3,1 -3.2,1.8l-1.3,-2.1c1.1,-0.9 2.3,-1.6 3.8,-2.1c1.5,-0.5 3.1,-0.7 4.7,-0.7c2.7,-0.2 4.8,0.5 6.3,1.9Zm-3.2,16c1.1,-0.7 2,-1.8 2.6,-3.2l0,-3.4l-6.6,0c-3.6,0 -5.4,1.3 -5.4,3.8c0,1.2 0.5,2.2 1.4,2.9c0.9,0.7 2.2,1.1 3.9,1.1c1.6,-0.1 2.9,-0.5 4.1,-1.2Z"
              style="fill:#ffffff;fill-rule:nonzero;"/>
        <path d="M699.8,424.3c1.6,1.5 2.3,3.8 2.3,6.7l0,12.2l-2.8,0l0,-11.9c0,-2.2 -0.5,-3.9 -1.6,-5c-1.1,-1.1 -2.7,-1.7 -4.7,-1.7c-2.3,0 -4.1,0.7 -5.4,2c-1.3,1.3 -2,3.2 -2,5.6l0,11l-2.8,0l0,-21l2.7,0l0,3.9c0.8,-1.3 1.8,-2.3 3.2,-3c1.4,-0.7 3,-1.1 4.8,-1.1c2.7,0 4.8,0.8 6.3,2.3Z"
              style="fill:#ffffff;fill-rule:nonzero;"/>
        <path d="M724.7,440.9l0,2.4l-17.1,0l0,-1.9l13.2,-16.8l-13,0l0,-2.4l16.6,0l0,1.9l-13.2,16.8l13.5,0Z"
              style="fill:#ffffff;fill-rule:nonzero;"/>
        <path d="M744,424.1c1.5,1.4 2.2,3.4 2.2,6.1l0,13l-2.7,0l0,-3.3c-0.6,1.1 -1.6,1.9 -2.8,2.6c-1.2,0.7 -2.7,0.9 -4.4,0.9c-2.3,0 -4.2,-0.6 -5.6,-1.7c-1.4,-1.1 -2.1,-2.6 -2.1,-4.4c0,-1.8 0.6,-3.2 1.9,-4.3c1.3,-1.1 3.4,-1.6 6.2,-1.6l6.7,0l0,-1.3c0,-1.8 -0.5,-3.2 -1.5,-4.1c-1,-0.9 -2.5,-1.4 -4.4,-1.4c-1.3,0 -2.6,0.2 -3.8,0.7c-1.2,0.4 -2.3,1 -3.2,1.8l-1.3,-2.1c1.1,-0.9 2.3,-1.6 3.8,-2.1c1.5,-0.5 3.1,-0.7 4.7,-0.7c2.7,-0.2 4.8,0.5 6.3,1.9Zm-3.2,16c1.1,-0.7 2,-1.8 2.6,-3.2l0,-3.4l-6.6,0c-3.6,0 -5.4,1.3 -5.4,3.8c0,1.2 0.5,2.2 1.4,2.9c0.9,0.7 2.2,1.1 3.9,1.1c1.6,-0.1 2.9,-0.5 4.1,-1.2Z"
              style="fill:#ffffff;fill-rule:nonzero;"/>
        <path d="M769.7,441.6c-2.3,-1.2 -4,-2.9 -5.3,-5.1c-1.3,-2.2 -1.9,-4.6 -1.9,-7.3c0,-2.7 0.6,-5.1 1.9,-7.3c1.3,-2.2 3,-3.9 5.3,-5.1c2.3,-1.2 4.8,-1.9 7.5,-1.9c2.7,0 5.3,0.6 7.5,1.8c2.2,1.2 4,2.9 5.3,5.1c1.3,2.2 1.9,4.6 1.9,7.3c0,2.7 -0.6,5.1 -1.9,7.3c-1.3,2.2 -3,3.9 -5.3,5.1c-2.3,1.2 -4.7,1.8 -7.5,1.8c-2.8,0 -5.3,-0.5 -7.5,-1.7Zm13.5,-2.3c1.8,-1 3.2,-2.4 4.2,-4.2c1,-1.8 1.5,-3.8 1.5,-5.9c0,-2.1 -0.5,-4.2 -1.5,-5.9c-1,-1.8 -2.4,-3.2 -4.2,-4.2c-1.8,-1 -3.8,-1.5 -6,-1.5c-2.2,0 -4.2,0.5 -6,1.5c-1.8,1 -3.2,2.4 -4.2,4.2c-1,1.8 -1.5,3.8 -1.5,5.9c0,2.1 0.5,4.2 1.5,5.9c1,1.8 2.4,3.2 4.2,4.2c1.8,1 3.8,1.5 6,1.5c2.2,0 4.2,-0.5 6,-1.5Z"
              style="fill:#ffffff;fill-rule:nonzero;"/>
        <path d="M803.7,423.1c1.3,-0.7 3,-1.1 4.9,-1.1l0,2.8l-0.7,0c-2.2,0 -3.9,0.7 -5.2,2c-1.3,1.4 -1.9,3.3 -1.9,5.7l0,10.7l-2.8,0l0,-21l2.7,0l0,4.1c0.6,-1.4 1.6,-2.5 3,-3.2Z"
              style="fill:#ffffff;fill-rule:nonzero;"/>
        <path d="M813.6,417c-0.4,-0.4 -0.6,-0.9 -0.6,-1.4c0,-0.5 0.2,-1 0.6,-1.4c0.4,-0.4 0.9,-0.6 1.5,-0.6c0.6,0 1.1,0.2 1.5,0.6c0.4,0.4 0.6,0.8 0.6,1.4c0,0.6 -0.2,1.1 -0.6,1.5c-0.4,0.4 -0.9,0.6 -1.5,0.6c-0.6,-0.1 -1.1,-0.3 -1.5,-0.7Zm0.1,5.2l2.8,0l0,21l-2.8,0l0,-21Z"
              style="fill:#ffffff;fill-rule:nonzero;"/>
        <path d="M842.8,433.6l-17.6,0c0.2,2.2 1,4 2.5,5.3c1.5,1.3 3.4,2 5.8,2c1.3,0 2.5,-0.2 3.6,-0.7c1.1,-0.5 2,-1.2 2.8,-2.1l1.6,1.8c-0.9,1.1 -2.1,2 -3.5,2.6c-1.4,0.6 -2.9,0.9 -4.6,0.9c-2.2,0 -4.1,-0.5 -5.7,-1.4c-1.6,-0.9 -3,-2.2 -3.9,-3.8c-0.9,-1.6 -1.4,-3.5 -1.4,-5.5c0,-2 0.4,-3.9 1.3,-5.5c0.9,-1.6 2.1,-2.9 3.7,-3.8c1.6,-0.9 3.3,-1.4 5.3,-1.4c1.9,0 3.7,0.5 5.2,1.4c1.5,0.9 2.8,2.2 3.6,3.8c0.8,1.6 1.3,3.5 1.3,5.5l0,0.9Zm-15.3,-7.2c-1.4,1.3 -2.2,3 -2.3,5.1l14.9,0c-0.2,-2.1 -1,-3.8 -2.3,-5.1c-1.4,-1.3 -3.1,-1.9 -5.1,-1.9c-2.1,0 -3.8,0.6 -5.2,1.9Z"
              style="fill:#ffffff;fill-rule:nonzero;"/>
        <path d="M865.6,424.3c1.6,1.5 2.3,3.8 2.3,6.7l0,12.2l-2.8,0l0,-11.9c0,-2.2 -0.5,-3.9 -1.6,-5c-1.1,-1.1 -2.7,-1.7 -4.7,-1.7c-2.3,0 -4.1,0.7 -5.4,2c-1.3,1.3 -2,3.2 -2,5.6l0,11l-2.8,0l0,-21l2.7,0l0,3.9c0.8,-1.3 1.8,-2.3 3.2,-3c1.4,-0.7 3,-1.1 4.8,-1.1c2.7,0 4.8,0.8 6.3,2.3Z"
              style="fill:#ffffff;fill-rule:nonzero;"/>
        <path d="M886.7,441.9c-0.5,0.5 -1.2,0.8 -2,1.1c-0.8,0.3 -1.6,0.4 -2.5,0.4c-2,0 -3.5,-0.5 -4.6,-1.6c-1.1,-1.1 -1.6,-2.6 -1.6,-4.5l0,-12.7l-3.8,0l0,-2.4l3.8,0l0,-4.6l2.8,0l0,4.6l6.4,0l0,2.4l-6.2,0l0,12.6c0,1.3 0.3,2.2 0.9,2.9c0.6,0.7 1.5,1 2.7,1c0.6,0 1.2,-0.1 1.7,-0.3c0.5,-0.2 1,-0.5 1.4,-0.8l1,1.9Z"
              style="fill:#ffffff;fill-rule:nonzero;"/>
        <path d="M905.6,424.1c1.5,1.4 2.2,3.4 2.2,6.1l0,13l-2.7,0l0,-3.3c-0.6,1.1 -1.6,1.9 -2.8,2.6c-1.2,0.7 -2.7,0.9 -4.4,0.9c-2.3,0 -4.2,-0.6 -5.6,-1.7c-1.4,-1.1 -2.1,-2.6 -2.1,-4.4c0,-1.8 0.6,-3.2 1.9,-4.3c1.3,-1.1 3.4,-1.6 6.2,-1.6l6.7,0l0,-1.3c0,-1.8 -0.5,-3.2 -1.5,-4.1c-1,-0.9 -2.5,-1.4 -4.4,-1.4c-1.3,0 -2.6,0.2 -3.8,0.7c-1.2,0.4 -2.3,1 -3.2,1.8l-1.3,-2.1c1.1,-0.9 2.3,-1.6 3.8,-2.1c1.5,-0.5 3.1,-0.7 4.7,-0.7c2.7,-0.2 4.8,0.5 6.3,1.9Zm-3.2,16c1.1,-0.7 2,-1.8 2.6,-3.2l0,-3.4l-6.6,0c-3.6,0 -5.4,1.3 -5.4,3.8c0,1.2 0.5,2.2 1.4,2.9c0.9,0.7 2.2,1.1 3.9,1.1c1.6,-0.1 2.9,-0.5 4.1,-1.2Z"
              style="fill:#ffffff;fill-rule:nonzero;"/>
        <rect x="915.5" y="413.5" width="2.8" height="29.7" style="fill:#ffffff;fill-rule:nonzero;"/></g></svg>