<?xml version="1.0" encoding="utf-8"?>
<svg version="1.1" xmlns="http://www.w3.org/2000/svg" xmlns:xlink="http://www.w3.org/1999/xlink" x="0px" y="0px"
	 viewBox="0 0 226 130" style="enable-background:new 0 0 226 130;" xml:space="preserve">
<style type="text/css">
	.st0{opacity:.05;}
</style>
<g>
	<path class="st0" d="M225,26.4l-8.5,8.5c-7.7,7.7-15.3,15.3-22.9,22.9c-0.6,0.6-1.2,1.1-1.8,1.7c-0.2,0.2-0.3,0.3-0.5,0.5
		c-0.1-0.6,0.1-1.3,0.5-2.3c0.2-0.5,0.4-0.9,0.5-1.4c2.8-10.6,5.7-21.1,8.6-31.7l2.8-10.4c0.2-0.6-0.2-1.1-0.7-1.3
		c-5.1-1.7-10.3-3-15.3-4.3c-1.8-0.5-3.6-0.9-5.4-1.4c-2.7-0.7-5.4-1.4-8.1-2.1c-5.5-1.4-11.1-2.9-16.6-4.4c-0.3-0.1-0.7-0.3-1-0.4
		c0.4-0.2,0.8-0.3,1.2-0.4H149c0.1,0.1,0.2,0.3,0.4,0.4c0,0.1-0.1,0.1-0.1,0.2c-0.6,1.7-2,2.9-3.5,4.1c-0.6,0.5-1.2,1.1-1.8,1.6
		c-7.9,7.9-15.8,15.8-23.8,23.8l-7.3,7.3l-0.3-0.3c-0.7-0.8-1.4-1.6-2.1-2.3c-5-5-10.1-10.1-15.1-15.1L81.9,6.3
		c-0.6-0.6-1.2-1.1-1.8-1.6c-1.5-1.2-2.8-2.4-3.5-4.1c0-0.1-0.1-0.1-0.1-0.2c0-0.1,0.1-0.1,0.1-0.1c0-0.1,0.1-0.2,0.1-0.3h-4.7
		c0,0,0,0,0,0c0,0,0,0,0,0H68c0.5,0.1,1,0.3,1.4,0.5C63.2,1.9,57,3.6,51,5.3C46.6,6.6,42,7.9,37.4,9l-2.4,0.6c-4,1-8.1,1.9-12.2,3.5
		c-0.5,0.2-0.8,0.8-0.7,1.3l2.5,9c3.1,11.4,6.2,22.8,9.3,34.3c0.1,0.3,0.2,0.7,0.4,1c0.3,0.7,0.4,1.1,0.4,1.4
		c-0.2-0.2-0.4-0.4-0.6-0.5c-0.6-0.5-1.2-1.1-1.8-1.7C24.7,50.3,17.1,42.7,9.4,35l-8.5-8.5c-0.2-0.2-0.5-0.3-0.8-0.3v2.7l0.1-0.1
		l7.8,7.8c7.7,7.7,15.3,15.3,22.9,22.9c0.6,0.6,1.3,1.2,1.9,1.8c1.5,1.3,2.9,2.6,3.8,4.3c-0.1,0.1-0.2,0.1-0.2,0.2
		C33,69.4,29.4,72.9,26,76.3c-1.6,1.5-3.1,3.1-4.6,4.6c-5,5.1-10.1,10.2-15.3,15.3l-6,6L0,102.1v2.7c0.3,0,0.6-0.1,0.8-0.3l6.8-6.8
		c5.1-5.1,10.2-10.2,15.3-15.3c1.5-1.5,3.1-3.1,4.6-4.6c2.4-2.3,4.7-4.7,7.1-7.2c0.2,0.8-0.1,1.6-0.5,2.6c-0.2,0.5-0.3,0.9-0.5,1.4
		c-2.9,10.8-5.8,21.6-8.8,32.5l-2.7,9.7c-0.1,0.3,0,0.6,0.1,0.8c0.1,0.2,0.4,0.4,0.7,0.5L67.1,130h9.7c0.6-1.3,1.8-2.2,3-3.2
		c0.6-0.5,1.2-1,1.8-1.5c8.2-8,16.3-15.9,24.7-23.9l7.4-7.2c0.5,0.6,1.1,1.3,1.7,1.9l12,12.1c5.6,5.7,11.3,11.4,16.9,17.1
		c0.6,0.6,1.2,1.1,1.9,1.7c1.2,0.9,2.2,1.8,2.9,3.1h9.7l44.2-11.9c0.3-0.1,0.5-0.3,0.7-0.5c0.1-0.3,0.2-0.5,0.1-0.8l-2.8-10.1
		c-3-10.8-5.9-21.4-8.7-32c-0.1-0.5-0.3-0.9-0.5-1.4c-0.3-0.8-0.5-1.4-0.5-2.1c0.3,0.2,0.5,0.4,0.8,0.6c0.6,0.4,1.1,0.9,1.6,1.3
		c7.8,7.8,15.6,15.6,23.5,23.5l7.9,7.9c0.3,0.3,0.6,0.3,1,0.3V102l-0.2,0.2l-7.2-7.2c-7.9-7.9-15.7-15.7-23.5-23.5
		c-0.5-0.5-1.2-1-1.8-1.5c-1-0.8-2-1.6-2.4-2.5c-0.4-0.9-1-1.6-1.5-2.1c0.9-1.7,2.3-3,3.8-4.3c0.7-0.6,1.3-1.2,1.9-1.8
		c7.6-7.6,15.2-15.2,22.9-22.9l7.8-7.8L226,29v-2.8C225.7,26.1,225.3,26.2,225,26.4z M36.4,61.7c0.9-1.4,0.3-2.9,0-3.9
		c-0.1-0.3-0.2-0.5-0.3-0.8c-3-11.5-6.2-22.9-9.3-34.3l-2.2-8c3.6-1.3,7.4-2.2,11-3.1l2.4-0.6c4.6-1.1,9.2-2.4,13.7-3.7
		c7.5-2.1,15.2-4.3,22.9-5.7c0.1,0,0.2,0,0.3-0.1c0.5,1.1,1.1,2,1.8,2.7c-0.8,1.8-0.2,3.4,0.3,4.7c0.1,0.4,0.3,0.8,0.4,1.2
		c2.9,10.8,5.8,21.6,8.8,32.6l2.3,8.5c-2,0.5-4,1.1-6,1.6c-5.3,1.4-10.8,2.8-16.1,4.3c-2.9,0.8-5.8,1.6-8.7,2.3
		c-4.8,1.2-9.8,2.5-14.7,4.1c-0.3,0.1-0.5,0.3-0.6,0.5c-1.1-0.3-2.6-0.5-4,0C37.8,63.4,37.1,62.5,36.4,61.7z M76.9,122
		c-0.1,0.3-0.2,0.6-0.3,0.9c-0.4,1.1-0.8,2.5-0.2,4.1c-0.8,0.8-1.4,1.6-1.8,2.8c0,0,0,0.1,0,0.1l-50-13.5l2.4-8.6
		c3-10.9,6-21.7,8.8-32.5c0.1-0.4,0.2-0.8,0.4-1.1c0.5-1.3,1.1-3,0.3-4.8c-0.1-0.1-0.1-0.2-0.2-0.3c0.6-0.6,1.1-1.2,1.7-1.8
		c1.3-1.5,3.5-1,4.5-0.6c4.2,2,8.7,3.1,13.1,4.1c2.1,0.5,4.2,1,6.3,1.6c6.4,1.9,13,3.6,19.3,5.3c2.4,0.6,4.9,1.3,7.4,2l-2.4,8.7
		C83,99.6,79.9,110.8,76.9,122z M147.5,125.3c-0.6-0.5-1.2-1-1.7-1.5c-5.6-5.7-11.2-11.4-16.9-17.1l-12-12.1
		c-0.7-0.7-1.4-1.5-1.9-2.1l-0.5-0.6c-0.2-0.2-0.5-0.3-0.8-0.4c-0.3,0-0.6,0.1-0.8,0.3l-8.2,8c-8.3,8.1-16.5,16-24.7,23.9
		c-0.5,0.5-1.1,1-1.6,1.4c-0.1,0-0.1,0.1-0.2,0.1c0-0.5,0.2-1.1,0.4-1.8c0.1-0.3,0.2-0.7,0.3-1c3-11.2,6-22.4,9.1-33.7l2.6-9.7
		c0.1-0.3,0-0.6-0.1-0.8c-0.1-0.2-0.4-0.4-0.7-0.5c-2.8-0.8-5.6-1.5-8.4-2.2c-6.3-1.7-12.9-3.4-19.3-5.3c-2.1-0.6-4.3-1.1-6.4-1.6
		c-3.6-0.9-7.3-1.8-10.9-3.2c4.3-1.4,8.7-2.5,13-3.6c2.9-0.8,5.9-1.5,8.8-2.3c5.3-1.5,10.8-2.9,16.1-4.3c2.4-0.6,4.7-1.2,7.1-1.9
		c0.3-0.1,0.5-0.3,0.7-0.5c0.1-0.3,0.2-0.5,0.1-0.8l-2.6-9.6c-3-11-6-21.8-8.8-32.6c-0.1-0.5-0.3-0.9-0.5-1.4
		c-0.3-0.8-0.6-1.6-0.5-2.3c0.1,0.1,0.2,0.2,0.4,0.3c0.6,0.5,1.1,1,1.7,1.5l13.4,13.4c5,5,10.1,10.1,15.1,15.1
		c0.7,0.7,1.3,1.4,2,2.2l1.1,1.2c0.2,0.2,0.5,0.4,0.8,0.4h0c0.3,0,0.6-0.1,0.8-0.3l8.2-8.2c8-8,15.9-15.9,23.8-23.8
		c0.5-0.5,1.1-1,1.7-1.5c0.1-0.1,0.2-0.2,0.4-0.3c0.1,0.7-0.2,1.5-0.5,2.3c-0.2,0.5-0.3,0.9-0.5,1.4c-2.8,10.7-5.8,21.4-8.7,32.2
		l-2.7,9.9c-0.1,0.3,0,0.6,0.1,0.8c0.1,0.2,0.4,0.4,0.7,0.5c2.4,0.6,4.8,1.3,7.1,1.9c5.3,1.4,10.7,2.8,16.1,4.3
		c2.9,0.8,5.9,1.6,8.8,2.3c4.3,1.1,8.8,2.3,13.1,3.7c-0.3,0.2-0.5,0.3-0.8,0.4c-4.3,1-8.6,2.2-12.7,3.4c-2.8,0.8-5.6,1.6-8.4,2.3
		l-4.4,1.2c-6.2,1.6-12.5,3.3-18.8,5.2c-0.6,0.2-0.9,0.8-0.7,1.3l2.5,9.2c3.1,11.4,6.2,22.8,9.3,34.1c0.1,0.3,0.2,0.7,0.3,1
		C147.4,124.2,147.6,124.8,147.5,125.3C147.6,125.3,147.5,125.3,147.5,125.3z M189.4,69.3c-0.8,1.8-0.2,3.4,0.3,4.7
		c0.1,0.4,0.3,0.8,0.4,1.2c2.8,10.7,5.7,21.3,8.7,32l2.5,9.1l-50,13.5c0,0,0-0.1,0-0.1c-0.4-1.1-1.1-2-1.9-2.7
		c0.7-1.5,0.2-2.9-0.2-4.1c-0.1-0.3-0.2-0.6-0.3-0.8c-3-11.4-6.1-22.7-9.3-34.2l-2.2-8.2c5.9-1.7,11.9-3.3,17.7-4.8l4.4-1.2
		c2.8-0.7,5.6-1.5,8.4-2.3c4.1-1.2,8.4-2.4,12.7-3.4c0.7-0.2,1.3-0.5,1.8-0.9c0.5-0.3,0.9-0.5,1.2-0.5c0.4,0,0.9,0,1.3,0
		c2.1,0,3.2,0,4.1,1.9C189.1,68.8,189.3,69,189.4,69.3z M190.1,55.8c-0.1,0.4-0.3,0.7-0.4,1.1c-0.5,1.3-1.2,3-0.2,4.7
		c-0.8,0.8-1.5,1.8-2.1,2.9c-0.9-0.2-1.8-0.2-2.6-0.2c-0.4,0-0.8,0-1.2,0c0,0,0,0,0,0c-0.1-0.3-0.3-0.5-0.6-0.6
		c-4.8-1.6-9.8-2.9-14.7-4.1c-2.9-0.8-5.8-1.5-8.8-2.3c-5.3-1.5-10.8-2.9-16.1-4.3c-2-0.5-4-1.1-6.1-1.6l2.4-8.9
		c3-10.8,5.9-21.5,8.7-32.2c0.1-0.4,0.2-0.8,0.4-1.1c0.5-1.3,1.1-2.9,0.3-4.7c0.7-0.8,1.4-1.7,1.8-2.8c0.3,0.1,0.7,0.1,1.1,0
		c1-0.3,1.8,0,3.1,0.6c0.6,0.3,1.2,0.5,1.8,0.7c5.5,1.5,11.1,3,16.6,4.4c2.7,0.7,5.4,1.4,8,2.1c1.8,0.5,3.6,0.9,5.4,1.4
		c4.7,1.2,9.4,2.4,14.1,3.9l-2.6,9.4C195.8,34.7,192.9,45.3,190.1,55.8z"/>
</g>
</svg>
